<?xml version="1.0" standalone="no"?>
<!DOCTYPE svg PUBLIC "-//W3C//DTD SVG 20010904//EN"
 "http://www.w3.org/TR/2001/REC-SVG-20010904/DTD/svg10.dtd">
<svg version="1.0" xmlns="http://www.w3.org/2000/svg"
 width="225.000000pt" height="225.000000pt" viewBox="0 0 225.000000 225.000000"
 preserveAspectRatio="xMidYMid meet">

<g transform="translate(0.000000,225.000000) scale(0.100000,-0.100000)"
fill="#000000" stroke="none">
<path d="M540 1919 c-167 -33 -305 -188 -318 -358 -6 -92 12 -167 59 -245 l40
-67 -155 -195 c-130 -164 -156 -203 -162 -239 -7 -51 6 -79 47 -101 34 -17 72
-21 107 -10 21 7 22 5 22 -52 0 -162 103 -282 271 -318 129 -28 414 2 516 54
44 23 103 75 121 107 11 20 11 19 29 -5 95 -133 211 -179 423 -165 271 17 407
77 465 204 12 27 24 41 37 41 49 0 159 83 190 143 14 28 18 50 14 73 -7 32
-96 143 -290 359 -132 147 -121 127 -93 172 78 124 76 298 -5 425 -83 131
-244 205 -393 180 -141 -23 -241 -96 -302 -220 -36 -73 -38 -80 -38 -176 0
-108 14 -155 71 -238 l26 -37 -58 -73 c-31 -40 -59 -75 -62 -78 -2 -3 -14 7
-25 21 -12 15 -48 56 -80 92 l-58 65 30 47 c60 95 68 258 18 367 -50 111 -164
202 -285 227 -60 13 -98 13 -162 0z m214 -123 c108 -53 169 -152 169 -272 0
-119 -61 -215 -175 -276 -66 -35 -183 -33 -260 5 -104 51 -159 137 -166 260
-4 72 -2 82 27 142 76 155 252 216 405 141z m854 19 c262 -78 290 -441 44
-562 -47 -23 -70 -28 -132 -28 -125 1 -214 56 -270 167 -25 51 -30 73 -30 132
0 208 190 350 388 291z m-1131 -665 c74 -28 166 -34 233 -16 30 8 58 12 62 8
24 -25 258 -474 258 -496 0 -63 -56 -143 -124 -178 -72 -37 -137 -49 -286 -55
-131 -5 -150 -3 -201 16 -62 23 -133 87 -155 137 -21 50 -27 124 -14 194 11
59 156 410 169 410 4 0 29 -9 58 -20z m603 -121 c201 -228 199 -224 119 -301
-82 -80 -70 -92 -275 288 l-54 101 37 26 c21 14 40 26 43 26 3 1 61 -63 130
-140z m295 122 c72 -27 143 -34 211 -21 33 6 65 12 72 13 17 2 271 -460 271
-493 1 -40 -44 -125 -80 -152 -55 -41 -90 -56 -178 -72 -94 -18 -277 -21 -332
-6 -49 14 -111 57 -148 104 -17 21 -31 42 -31 45 0 4 16 13 35 20 53 19 142
110 150 154 10 50 1 70 -66 148 l-60 69 47 105 c25 58 49 105 53 105 3 0 29
-8 56 -19z m576 -91 c158 -176 199 -229 199 -257 0 -32 -74 -108 -113 -119
-16 -3 -29 -5 -31 -3 -9 11 -231 425 -231 431 0 9 67 59 75 56 4 -2 49 -50
101 -108z m-1686 -81 c-25 -63 -53 -135 -61 -161 -12 -36 -22 -50 -49 -62 -53
-25 -105 4 -105 59 0 26 23 62 122 186 122 153 122 153 131 123 7 -25 1 -50
-38 -145z m940 112 c-3 -13 -12 -38 -19 -54 l-12 -31 -23 32 -22 32 28 40 c25
36 29 38 41 22 7 -9 10 -28 7 -41z"/>
</g>
</svg>
